<svg width="20" height="21" viewBox="0 0 20 21" fill="none" xmlns="http://www.w3.org/2000/svg">
<g id="Frame">
<path id="Vector" d="M1.875 15.8828C6.32134 15.8792 10.7483 16.468 15.0392 17.6336C15.645 17.7986 16.25 17.3486 16.25 16.7203V15.8828M3.125 4.00781V4.63281C3.125 4.79857 3.05915 4.95754 2.94194 5.07475C2.82473 5.19196 2.66576 5.25781 2.5 5.25781H1.875M1.875 5.25781V4.94531C1.875 4.42781 2.295 4.00781 2.8125 4.00781H16.875M1.875 5.25781V12.7578M16.875 4.00781V4.63281C16.875 4.97781 17.155 5.25781 17.5 5.25781H18.125M16.875 4.00781H17.1875C17.705 4.00781 18.125 4.42781 18.125 4.94531V13.0703C18.125 13.5878 17.705 14.0078 17.1875 14.0078H16.875M1.875 12.7578V13.0703C1.875 13.319 1.97377 13.5574 2.14959 13.7332C2.3254 13.909 2.56386 14.0078 2.8125 14.0078H3.125M1.875 12.7578H2.5C2.66576 12.7578 2.82473 12.8237 2.94194 12.9409C3.05915 13.0581 3.125 13.2171 3.125 13.3828V14.0078M16.875 14.0078V13.3828C16.875 13.2171 16.9408 13.0581 17.0581 12.9409C17.1753 12.8237 17.3342 12.7578 17.5 12.7578H18.125M16.875 14.0078H3.125M12.5 9.00781C12.5 9.67085 12.2366 10.3067 11.7678 10.7756C11.2989 11.2444 10.663 11.5078 10 11.5078C9.33696 11.5078 8.70107 11.2444 8.23223 10.7756C7.76339 10.3067 7.5 9.67085 7.5 9.00781C7.5 8.34477 7.76339 7.70889 8.23223 7.24005C8.70107 6.7712 9.33696 6.50781 10 6.50781C10.663 6.50781 11.2989 6.7712 11.7678 7.24005C12.2366 7.70889 12.5 8.34477 12.5 9.00781ZM15 9.00781H15.0067V9.01448H15V9.00781ZM5 9.00781H5.00667V9.01448H5V9.00781Z" stroke="white" stroke-width="1.25" stroke-linecap="round" stroke-linejoin="round"/>
</g>
</svg>
