<svg width="20" height="21" viewBox="0 0 20 21" fill="none" xmlns="http://www.w3.org/2000/svg">
<g id="Frame">
<path id="Vector" d="M10 5.25781V15.2578M7.5 12.9095L8.2325 13.4586C9.20833 14.1911 10.7908 14.1911 11.7675 13.4586C12.7442 12.7261 12.7442 11.5395 11.7675 10.807C11.28 10.4403 10.64 10.2578 10 10.2578C9.39583 10.2578 8.79167 10.0745 8.33083 9.70865C7.40917 8.97615 7.40917 7.78948 8.33083 7.05698C9.2525 6.32448 10.7475 6.32448 11.6692 7.05698L12.015 7.33198M17.5 10.2578C17.5 11.2427 17.306 12.218 16.9291 13.1279C16.5522 14.0379 15.9997 14.8647 15.3033 15.5611C14.6069 16.2576 13.7801 16.81 12.8701 17.1869C11.9602 17.5638 10.9849 17.7578 10 17.7578C9.01509 17.7578 8.03982 17.5638 7.12987 17.1869C6.21993 16.81 5.39314 16.2576 4.6967 15.5611C4.00026 14.8647 3.44781 14.0379 3.0709 13.1279C2.69399 12.218 2.5 11.2427 2.5 10.2578C2.5 8.26869 3.29018 6.36103 4.6967 4.95451C6.10322 3.54799 8.01088 2.75781 10 2.75781C11.9891 2.75781 13.8968 3.54799 15.3033 4.95451C16.7098 6.36103 17.5 8.26869 17.5 10.2578Z" stroke="white" stroke-width="1.25" stroke-linecap="round" stroke-linejoin="round"/>
</g>
</svg>
