<svg width="204" height="49" viewBox="0 0 204 49" fill="none" xmlns="http://www.w3.org/2000/svg">
<g id="Frame">
<g id="Clip path group">
<mask id="mask0_11_3335" style="mask-type:luminance" maskUnits="userSpaceOnUse" x="0" y="0" width="204" height="49">
<g id="clip0_382_1340">
<path id="Vector" d="M203.907 0.554688H0V48.5547H203.907V0.554688Z" fill="white"/>
</g>
</mask>
<g mask="url(#mask0_11_3335)">
<g id="Group">
<path id="Vector_2" d="M14.1849 25.4172V22.2452L23.9833 14.7406L30.2732 19.4097V1.39102C24.4412 -0.206291 18.2212 0.458257 12.8582 3.25162C7.49536 6.04498 3.38554 10.761 1.35161 16.4554C-0.682326 22.1499 -0.49024 28.4023 1.88941 33.9612C4.26906 39.5201 8.66063 43.9748 14.1849 46.4337V25.4172Z" fill="#244FDB"/>
<path id="Vector_3" d="M33.7818 2.64453V34.3377H17.6934V47.6873C23.5254 49.2846 29.7455 48.6201 35.1084 45.8267C40.4713 43.0334 44.581 38.3174 46.615 32.6228C48.649 26.9284 48.4569 20.6759 46.0772 15.1171C43.6975 9.55824 39.306 5.10343 33.7818 2.64453Z" fill="#244FDB"/>
<path id="Vector_4" d="M79.6367 38.717L74.7201 31.6186H69.3044V38.717H63.4014V13.2402H74.43C81.2343 13.2402 85.4934 16.7682 85.4934 22.4816C85.4934 26.3035 83.5591 29.108 80.2518 30.5277L85.9692 38.717H79.6367ZM74.1012 18.0447H69.2967V26.9224H74.1012C77.7065 26.9224 79.5167 25.2475 79.5167 22.4816C79.5167 19.7158 77.7065 18.0447 74.1012 18.0447Z" fill="#244FDB"/>
<path id="Vector_5" d="M109.187 30.5279H94.3865C94.9319 32.9651 97.0092 34.4582 99.9916 34.4582C100.896 34.4948 101.799 34.3459 102.644 34.0206C103.489 33.6951 104.258 33.2004 104.904 32.5665L107.925 35.8391C106.107 37.9164 103.376 39.0073 99.8485 39.0073C93.0789 39.0073 88.6729 34.7521 88.6729 28.9265C88.6729 23.1007 93.1485 18.8457 99.1173 18.8457C104.87 18.8457 109.31 22.714 109.31 28.9999C109.295 29.4332 109.221 30.0521 109.187 30.5279ZM94.3013 27.2167H103.945C103.804 26.0574 103.231 24.9937 102.341 24.238C101.45 23.4823 100.307 23.09 99.1405 23.1395C96.5565 23.1395 94.6997 24.7023 94.3013 27.2167Z" fill="#244FDB"/>
<path id="Vector_6" d="M130.219 27.5416V38.7171H124.908V36.2763C123.852 38.0595 121.813 39.0073 118.939 39.0073C114.351 39.0073 111.624 36.458 111.624 33.0733C111.624 29.615 114.061 27.2166 120.03 27.2166H124.56C124.56 24.7757 123.101 23.3483 120.045 23.3483C118.018 23.3321 116.04 23.9712 114.405 25.1704L112.367 21.2014C114.514 19.654 117.678 18.8379 120.811 18.8379C126.765 18.8456 130.219 21.6115 130.219 27.5416ZM124.56 32.5278V30.528H120.649C117.991 30.528 117.167 31.5105 117.167 32.8179C117.167 34.2376 118.366 35.1854 120.37 35.1854C122.239 35.1854 123.887 34.3112 124.56 32.5278Z" fill="#244FDB"/>
<path id="Vector_7" d="M135.716 11.709H141.391V38.7176H135.716V11.709Z" fill="#244FDB"/>
<path id="Vector_8" d="M168.361 28.9269C168.361 35.0774 164.105 39.0077 158.604 39.0077C155.986 39.0077 153.873 38.1722 152.454 36.4586V38.7176H147.038V11.709H152.717V21.2096C154.171 19.6082 156.175 18.8461 158.612 18.8461C164.102 18.8461 168.361 22.7763 168.361 28.9269ZM162.607 28.9269C162.607 25.5421 160.462 23.5112 157.622 23.5112C154.783 23.5112 152.636 25.5498 152.636 28.9269C152.636 32.304 154.783 34.3426 157.622 34.3426C160.462 34.3426 162.607 32.3117 162.607 28.9269Z" fill="#244FDB"/>
<path id="Vector_9" d="M171.815 13.2404C171.815 11.4571 173.235 10.0723 175.347 10.0723C177.459 10.0723 178.875 11.3836 178.875 13.1282C178.875 15.0237 177.455 16.4047 175.347 16.4047C173.238 16.4047 171.815 15.0237 171.815 13.2404ZM172.526 19.1242H178.206V38.7171H172.526V19.1242Z" fill="#244FDB"/>
<path id="Vector_10" d="M203.768 11.709V38.7176H198.352V36.4586C196.932 38.1722 194.87 39.0077 192.236 39.0077C186.704 39.0077 182.444 35.0774 182.444 28.9269C182.444 22.7763 186.7 18.8461 192.236 18.8461C194.638 18.8461 196.676 19.6197 198.096 21.2096V11.709H203.768ZM198.201 28.9269C198.201 25.5421 196.016 23.5112 193.214 23.5112C190.414 23.5112 188.185 25.5498 188.185 28.9269C188.185 32.304 190.368 34.3426 193.214 34.3426C196.062 34.3426 198.201 32.3117 198.201 28.9269Z" fill="#244FDB"/>
</g>
</g>
</g>
</g>
</svg>
