<svg width="24" height="25" viewBox="0 0 24 25" fill="none" xmlns="http://www.w3.org/2000/svg">
<g id="Frame">
<path id="Vector" fill-rule="evenodd" clip-rule="evenodd" d="M12.0004 21.8582C14.5465 21.8582 16.9883 20.8468 18.7886 19.0464C20.589 17.2461 21.6004 14.8043 21.6004 12.2582C21.6004 9.71212 20.589 7.27033 18.7886 5.46998C16.9883 3.66963 14.5465 2.6582 12.0004 2.6582C9.45431 2.6582 7.01252 3.66963 5.21217 5.46998C3.41182 7.27033 2.40039 9.71212 2.40039 12.2582C2.40039 14.8043 3.41182 17.2461 5.21217 19.0464C7.01252 20.8468 9.45431 21.8582 12.0004 21.8582ZM16.6288 10.0874C16.6983 9.99175 16.7483 9.88334 16.7759 9.76837C16.8035 9.65341 16.8081 9.53413 16.7896 9.41735C16.7712 9.30057 16.7298 9.18858 16.6681 9.08777C16.6063 8.98695 16.5252 8.8993 16.4296 8.8298C16.3339 8.76031 16.2255 8.71033 16.1106 8.68273C15.9956 8.65513 15.8763 8.65045 15.7595 8.66895C15.6428 8.68744 15.5308 8.72876 15.43 8.79054C15.3291 8.85232 15.2415 8.93335 15.172 9.029L10.9924 14.777L8.73639 12.521C8.65333 12.4351 8.55399 12.3666 8.44416 12.3195C8.33433 12.2723 8.21623 12.2476 8.09672 12.2466C7.97722 12.2456 7.85872 12.2684 7.74814 12.3137C7.63755 12.359 7.5371 12.4259 7.45263 12.5105C7.36817 12.595 7.30139 12.6955 7.25619 12.8061C7.21099 12.9168 7.18827 13.0353 7.18937 13.1548C7.19046 13.2743 7.21534 13.3924 7.26256 13.5022C7.30978 13.6119 7.37839 13.7112 7.46439 13.7942L10.4644 16.7942C10.5563 16.8862 10.6671 16.9572 10.7892 17.0023C10.9112 17.0473 11.0415 17.0654 11.1712 17.0552C11.3009 17.0451 11.4268 17.007 11.5403 16.9435C11.6539 16.88 11.7523 16.7926 11.8288 16.6874L16.6288 10.0874Z" fill="#244FDB"/>
</g>
</svg>
