<svg width="20" height="21" viewBox="0 0 20 21" fill="none" xmlns="http://www.w3.org/2000/svg">
<g id="Frame">
<path id="Vector" d="M8.75 5.25781C7.51387 5.25781 6.3055 5.62437 5.27769 6.31113C4.24988 6.99789 3.4488 7.974 2.97576 9.11604C2.50271 10.2581 2.37894 11.5147 2.62009 12.7271C2.86125 13.9395 3.45651 15.0532 4.33059 15.9272C5.20466 16.8013 6.31831 17.3966 7.53069 17.6377C8.74307 17.8789 9.99974 17.7551 11.1418 17.2821C12.2838 16.809 13.2599 16.0079 13.9467 14.9801C14.6334 13.9523 15 12.7439 15 11.5078H8.75V5.25781Z" stroke="white" stroke-width="1.25" stroke-linecap="round" stroke-linejoin="round"/>
<path id="Vector_2" d="M11.25 9.00781H17.5C17.5 7.35021 16.8415 5.7605 15.6694 4.5884C14.4973 3.41629 12.9076 2.75781 11.25 2.75781V9.00781Z" stroke="white" stroke-width="1.25" stroke-linecap="round" stroke-linejoin="round"/>
</g>
</svg>
